<mxfile host="65bd71144e" modified="2021-01-19T17:28:03.087Z" agent="5.0 (Macintosh; Intel Mac OS X 10_15_7) AppleWebKit/537.36 (KHTML, like Gecko) Code/1.52.1 Chrome/83.0.4103.122 Electron/9.3.5 Safari/537.36" etag="DUZarWQb2xXRHhJF3l9W" version="13.10.0" type="embed">
    <diagram id="dBo2XjOt7EpFzHw8XWTQ" name="Page-1">
        <mxGraphModel dx="556" dy="526" grid="1" gridSize="10" guides="1" tooltips="1" connect="1" arrows="1" fold="1" page="1" pageScale="1" pageWidth="850" pageHeight="1100" math="0" shadow="0">
            <root>
                <mxCell id="0"/>
                <mxCell id="1" parent="0"/>
                <mxCell id="PGeqGczONbqw6zvu_6Re-1" value="1. Input: String&lt;br&gt;2. Output: Boolean (True if the string is made of unique characters&lt;br&gt;3. Constraints: use just strings (no Sets or Arrays)&lt;br&gt;4. Examples / Edge:&amp;nbsp;&lt;br&gt;&amp;nbsp; &amp;nbsp; a. &quot;boolean&quot; --&amp;gt; false&lt;br&gt;&amp;nbsp; &amp;nbsp; b. &quot;help&quot; --&amp;gt; true&lt;br&gt;&amp;nbsp; &amp;nbsp; c. 1231 --&amp;gt; false?&amp;nbsp; null?&lt;br&gt;&amp;nbsp; &amp;nbsp; d. &quot;abcdefghijklmnopqrstuvwxyz&quot; --&amp;gt; true" style="text;html=1;strokeColor=none;fillColor=none;align=left;verticalAlign=top;whiteSpace=wrap;rounded=0;horizontal=1;labelPosition=center;verticalLabelPosition=middle;" parent="1" vertex="1">
                    <mxGeometry x="80" y="60" width="380" height="130" as="geometry"/>
                </mxCell>
                <mxCell id="PGeqGczONbqw6zvu_6Re-5" value="" style="edgeStyle=orthogonalEdgeStyle;rounded=0;orthogonalLoop=1;jettySize=auto;html=1;" parent="1" source="PGeqGczONbqw6zvu_6Re-2" target="PGeqGczONbqw6zvu_6Re-4" edge="1">
                    <mxGeometry relative="1" as="geometry"/>
                </mxCell>
                <mxCell id="PGeqGczONbqw6zvu_6Re-2" value="String" style="rounded=1;whiteSpace=wrap;html=1;align=center;" parent="1" vertex="1">
                    <mxGeometry x="230" y="240" width="40" height="30" as="geometry"/>
                </mxCell>
                <mxCell id="PGeqGczONbqw6zvu_6Re-7" value="" style="edgeStyle=orthogonalEdgeStyle;rounded=0;orthogonalLoop=1;jettySize=auto;html=1;" parent="1" source="PGeqGczONbqw6zvu_6Re-4" target="PGeqGczONbqw6zvu_6Re-6" edge="1">
                    <mxGeometry relative="1" as="geometry"/>
                </mxCell>
                <mxCell id="PGeqGczONbqw6zvu_6Re-16" value="" style="edgeStyle=orthogonalEdgeStyle;rounded=0;orthogonalLoop=1;jettySize=auto;html=1;" parent="1" source="PGeqGczONbqw6zvu_6Re-4" target="PGeqGczONbqw6zvu_6Re-15" edge="1">
                    <mxGeometry relative="1" as="geometry">
                        <Array as="points">
                            <mxPoint x="95" y="350"/>
                        </Array>
                    </mxGeometry>
                </mxCell>
                <mxCell id="PGeqGczONbqw6zvu_6Re-4" value="Iterate the String:&lt;br&gt;Character &quot;i&quot; (&quot;S&quot;)" style="rounded=1;whiteSpace=wrap;html=1;align=center;" parent="1" vertex="1">
                    <mxGeometry x="190" y="320" width="120" height="60" as="geometry"/>
                </mxCell>
                <mxCell id="PGeqGczONbqw6zvu_6Re-9" value="" style="edgeStyle=orthogonalEdgeStyle;rounded=0;orthogonalLoop=1;jettySize=auto;html=1;" parent="1" source="PGeqGczONbqw6zvu_6Re-6" target="PGeqGczONbqw6zvu_6Re-8" edge="1">
                    <mxGeometry relative="1" as="geometry"/>
                </mxCell>
                <mxCell id="PGeqGczONbqw6zvu_6Re-6" value="Iterate the storage string" style="rounded=1;whiteSpace=wrap;html=1;align=center;" parent="1" vertex="1">
                    <mxGeometry x="190" y="440" width="120" height="60" as="geometry"/>
                </mxCell>
                <mxCell id="PGeqGczONbqw6zvu_6Re-11" value="" style="edgeStyle=orthogonalEdgeStyle;rounded=0;orthogonalLoop=1;jettySize=auto;html=1;" parent="1" source="PGeqGczONbqw6zvu_6Re-8" target="PGeqGczONbqw6zvu_6Re-10" edge="1">
                    <mxGeometry relative="1" as="geometry"/>
                </mxCell>
                <mxCell id="PGeqGczONbqw6zvu_6Re-14" value="" style="edgeStyle=orthogonalEdgeStyle;rounded=0;orthogonalLoop=1;jettySize=auto;html=1;" parent="1" source="PGeqGczONbqw6zvu_6Re-8" target="PGeqGczONbqw6zvu_6Re-13" edge="1">
                    <mxGeometry relative="1" as="geometry"/>
                </mxCell>
                <mxCell id="PGeqGczONbqw6zvu_6Re-8" value="IF Char is &lt;br&gt;! in Storage" style="ellipse;whiteSpace=wrap;html=1;rounded=1;" parent="1" vertex="1">
                    <mxGeometry x="365" y="430" width="120" height="80" as="geometry"/>
                </mxCell>
                <mxCell id="PGeqGczONbqw6zvu_6Re-12" value="" style="edgeStyle=orthogonalEdgeStyle;rounded=0;orthogonalLoop=1;jettySize=auto;html=1;" parent="1" source="PGeqGczONbqw6zvu_6Re-10" target="PGeqGczONbqw6zvu_6Re-4" edge="1">
                    <mxGeometry relative="1" as="geometry"/>
                </mxCell>
                <mxCell id="PGeqGczONbqw6zvu_6Re-10" value="Add to Storage&lt;br&gt;Start next iteration" style="ellipse;whiteSpace=wrap;html=1;rounded=1;" parent="1" vertex="1">
                    <mxGeometry x="365" y="310" width="120" height="80" as="geometry"/>
                </mxCell>
                <mxCell id="PGeqGczONbqw6zvu_6Re-13" value="ELSE&lt;br&gt;FALSE" style="rhombus;whiteSpace=wrap;html=1;rounded=1;" parent="1" vertex="1">
                    <mxGeometry x="520" y="430" width="80" height="80" as="geometry"/>
                </mxCell>
                <mxCell id="PGeqGczONbqw6zvu_6Re-15" value="After iteration:&lt;br&gt;TRUE" style="rhombus;whiteSpace=wrap;html=1;rounded=1;" parent="1" vertex="1">
                    <mxGeometry x="30" y="410" width="130" height="120" as="geometry"/>
                </mxCell>
            </root>
        </mxGraphModel>
    </diagram>
</mxfile>